<?xml version="1.0" encoding="UTF-8" standalone="no"?>
<!-- Created with Inkscape (http://www.inkscape.org/) -->

<svg
   xmlns:dc="http://purl.org/dc/elements/1.1/"
   xmlns:cc="http://creativecommons.org/ns#"
   xmlns:rdf="http://www.w3.org/1999/02/22-rdf-syntax-ns#"
   xmlns:svg="http://www.w3.org/2000/svg"
   xmlns="http://www.w3.org/2000/svg"
   xmlns:sodipodi="http://sodipodi.sourceforge.net/DTD/sodipodi-0.dtd"
   xmlns:inkscape="http://www.inkscape.org/namespaces/inkscape"
   width="24"
   height="24"
   id="svg4306"
   version="1.1"
   inkscape:version="0.91 r13725"
   sodipodi:docname="close_prelight.svg"
   style="enable-background:new">
  <defs
     id="defs4308">
    <linearGradient
       id="linearGradient3770">
      <stop
         style="stop-color:#000000;stop-opacity:0.62827224;"
         offset="0"
         id="stop3772" />
      <stop
         style="stop-color:#000000;stop-opacity:0.49803922;"
         offset="1"
         id="stop3774" />
    </linearGradient>
    <linearGradient
       id="linearGradient4882">
      <stop
         style="stop-color:#ffffff;stop-opacity:1;"
         offset="0"
         id="stop4884" />
      <stop
         style="stop-color:#ffffff;stop-opacity:0;"
         offset="1"
         id="stop4886" />
    </linearGradient>
    <linearGradient
       id="linearGradient3784-6">
      <stop
         style="stop-color:#ffffff;stop-opacity:0.21568628;"
         offset="0"
         id="stop3786-4" />
      <stop
         style="stop-color:#ffffff;stop-opacity:0;"
         offset="1"
         id="stop3788-6" />
    </linearGradient>
    <linearGradient
       id="linearGradient4892">
      <stop
         id="stop4894"
         offset="0"
         style="stop-color:#2f3a42;stop-opacity:1;" />
      <stop
         id="stop4896"
         offset="1"
         style="stop-color:#1d242a;stop-opacity:1;" />
    </linearGradient>
    <linearGradient
       id="linearGradient4882-4">
      <stop
         id="stop4884-9"
         offset="0"
         style="stop-color:#728495;stop-opacity:1;" />
      <stop
         id="stop4886-9"
         offset="1"
         style="stop-color:#617c95;stop-opacity:0;" />
    </linearGradient>
  </defs>
  <sodipodi:namedview
     id="base"
     pagecolor="#f0f1f2"
     bordercolor="#666666"
     borderopacity="1.0"
     inkscape:pageopacity="1"
     inkscape:pageshadow="2"
     inkscape:zoom="22.627418"
     inkscape:cx="7.779207"
     inkscape:cy="10.966175"
     inkscape:document-units="px"
     inkscape:current-layer="layer1"
     showgrid="true"
     showguides="true"
     inkscape:guide-bbox="true"
     inkscape:window-width="1280"
     inkscape:window-height="747"
     inkscape:window-x="0"
     inkscape:window-y="0"
     inkscape:window-maximized="1"
     inkscape:snap-bbox="true"
     inkscape:snap-global="true"
     inkscape:snap-bbox-midpoints="false"
     inkscape:bbox-paths="true"
     inkscape:bbox-nodes="true"
     inkscape:snap-bbox-edge-midpoints="true">
    <inkscape:grid
       type="xygrid"
       id="grid4314"
       empspacing="5"
       visible="true"
       enabled="true"
       snapvisiblegridlinesonly="true" />
    <sodipodi:guide
       orientation="1,0"
       position="12,12"
       id="guide4316" />
    <sodipodi:guide
       orientation="0,1"
       position="12,12"
       id="guide4318" />
  </sodipodi:namedview>
  <metadata
     id="metadata4311">
    <rdf:RDF>
      <cc:Work
         rdf:about="">
        <dc:format>image/svg+xml</dc:format>
        <dc:type
           rdf:resource="http://purl.org/dc/dcmitype/StillImage" />
        <dc:title />
      </cc:Work>
    </rdf:RDF>
  </metadata>
  <g
     inkscape:label="Ebene 1"
     inkscape:groupmode="layer"
     id="layer1"
     transform="translate(0,-1028.3622)">
    <g
       transform="matrix(0.01265625,0,0,-0.01265625,4.9280403,1046.8821)"
       id="titlebutton-close-hover"
       inkscape:label="#g3339">
      <path
         inkscape:connector-curvature="0"
         d="m 558.77708,-37.935271 c 305.45607,0 553.08142,247.625871 553.08142,553.085831 0,305.46125 -247.62535,553.08674 -553.08142,553.08674 -305.46513,0 -553.0913269,-247.62549 -553.0913269,-553.08674 0,-305.45996 247.6261969,-553.085831 553.0913269,-553.085831"
         style="fill:#d52735;fill-opacity:1;fill-rule:evenodd;stroke:none"
         id="path4094" />
      <g
         transform="matrix(1.0680345,0,0,1.0680345,0.41786301,-41.900484)"
         id="g4144">
        <path
           id="path4096"
           style="fill:#f25056;fill-opacity:1;fill-rule:evenodd;stroke:none"
           d="m 522.79173,40.6992 c 265.56911,0 480.85987,215.29542 480.85987,480.86946 0,265.57526 -215.29076,480.86604 -480.85987,480.86604 -265.57896,0 -480.86983,-215.29078 -480.86983,-480.86604 0,-265.57404 215.29087,-480.86946 480.86983,-480.86946"
           inkscape:connector-curvature="0" />
        <path
           style="fill:#9f1d2b;fill-opacity:1;fill-rule:evenodd;stroke:none"
           d="m 306.28404,782.14979 c -11.06764,0 -22.15209,-4.31529 -30.55026,-12.71345 l -0.75901,-0.75902 c -16.79758,-16.79634 -16.79758,-44.30417 0,-61.10052 L 460.93287,521.6187 274.97477,335.47086 c -16.79266,-16.79145 -16.79266,-44.11445 0,-60.91075 l 0.75901,-0.94881 c 16.79142,-16.7963 44.30418,-16.7963 61.10051,0 L 522.7924,459.56941 708.7505,273.6113 c 16.79265,-16.7963 44.30417,-16.7963 61.10052,0 l 0.75901,0.94881 c 16.79142,16.79144 16.79142,44.1193 0,60.91075 l -185.9581,186.14784 185.9581,185.9581 c 16.79142,16.79635 16.79635,44.3091 0,61.10052 l -0.75901,0.75902 c -16.80126,16.79142 -44.30787,16.79142 -61.10052,0 L 522.7924,583.47823 336.83429,769.43634 c -8.39817,8.39816 -19.48262,12.71345 -30.55025,12.71345 z"
           id="path4098"
           inkscape:connector-curvature="0" />
      </g>
    </g>
  </g>
</svg>
