/* XPM */
static char * close_inactive_xpm[] = {
"24 24 27 1",
" 	c None",
".	c #EEEFF1",
"+	c #E7E8EB",
"@	c #E2E3E6",
"#	c #CECFD0",
"$	c #C2C3C3",
"%	c #BEBEBE",
"&	c #C2C2C3",
"*	c #E3E4E6",
"=	c #D8D8DA",
"-	c #BDBDBD",
";	c #C5C5C5",
">	c #C8C8C8",
",	c #BEBFBF",
"'	c #D8D9DB",
")	c #D7D7D9",
"!	c #BFBFBF",
"~	c #C7C7C7",
"{	c #D7D8DA",
"]	c #E3E4E7",
"^	c #BEBEBF",
"/	c #CDCECF",
"(	c #CECED0",
"_	c #C1C1C2",
":	c #BDBDBE",
"<	c #E4E5E7",
"[	c #CFCFD1",
"........................",
"++++++++++++++++++++++++",
"++++++++++++++++++++++++",
"++++++++++++++++++++++++",
"++++++++++++++++++++++++",
"++++++++@#$%%&#*++++++++",
"+++++++=-;>>>>;,'+++++++",
"++++++)!>>>>>>>~!{++++++",
"+++++]%>>>>>>>>>>^]+++++",
"+++++/;>>>>>>>>>>;(+++++",
"+++++_>>>>>>>>>>>>&+++++",
"+++++:>>>>>>>>>>>>^+++++",
"+++++:>>>>>>>>>>>>^+++++",
"+++++_>>>>>>>>>>>>&+++++",
"+++++/;>>>>>>>>>>;(+++++",
"+++++]->>>>>>>>>~%<+++++",
"++++++)!>>>>>>>~!{++++++",
"+++++++=-;>>>>;,'+++++++",
"++++++++@#$%%&[*++++++++",
"++++++++++++++++++++++++",
"++++++++++++++++++++++++",
"++++++++++++++++++++++++",
"++++++++++++++++++++++++",
"++++++++++++++++++++++++"};
