/* XPM */
static char * close_active_xpm[] = {
"24 24 49 1",
" 	c None",
".	c #EEEFF1",
"+	c #E7E8EB",
"@	c #E6D8DC",
"#	c #DE8790",
"$	c #D94F5B",
"%	c #D53240",
"&	c #D63442",
"*	c #D9505C",
"=	c #DE8992",
"-	c #E6DADE",
";	c #E1ACB2",
">	c #D63441",
",	c #D62836",
"'	c #D63643",
")	c #E2B0B6",
"!	c #E1ACB3",
"~	c #D52A38",
"{	c #D52B39",
"]	c #E6D7DC",
"^	c #CE2634",
"/	c #C82533",
"(	c #C72533",
"_	c #CF2735",
":	c #D63543",
"<	c #DE8890",
"[	c #A11E2C",
"}	c #C42533",
"|	c #C32432",
"1	c #DF8B94",
"2	c #D94D59",
"3	c #D9515B",
"4	c #D7323F",
"5	c #D9515D",
"6	c #DE878F",
"7	c #C92533",
"8	c #DE8A92",
"9	c #D63542",
"0	c #CE2735",
"a	c #E6DBDE",
"b	c #E2ABB2",
"c	c #E1AFB5",
"d	c #D73643",
"e	c #E2AFB5",
"f	c #E5D7DC",
"g	c #D94E5A",
"h	c #D63240",
"i	c #D63340",
"j	c #DE8891",
"........................",
"++++++++++++++++++++++++",
"++++++++++++++++++++++++",
"++++++++++++++++++++++++",
"++++++++++++++++++++++++",
"++++++++@#$%&*=-++++++++",
"+++++++;>,,,,,,')+++++++",
"++++++!~,,,,,,,,{)++++++",
"+++++]%,^/,,,,(_,:-+++++",
"+++++<,,([},,|[/,,1+++++",
"+++++2,,,|[}|[},,,3+++++",
"+++++4,,,,|[[},,,,:+++++",
"+++++4,,,,|[[},,,,:+++++",
"+++++2,,,|[}|[},,,5+++++",
"+++++6,,([},,|[7,,8+++++",
"+++++@9,0/,,,,/_,'a+++++",
"++++++b~,,,,,,,,{c++++++",
"+++++++b&,,,,,,de+++++++",
"++++++++f<ghi$j-++++++++",
"++++++++++++++++++++++++",
"++++++++++++++++++++++++",
"++++++++++++++++++++++++",
"++++++++++++++++++++++++",
"++++++++++++++++++++++++"};
