/* XPM */
static char * close_pressed_xpm[] = {
"24 24 45 1",
" 	c None",
".	c #EEEFF1",
"+	c #E7E8EB",
"@	c #E5D4D8",
"#	c #DD828B",
"$	c #DF515C",
"%	c #E03D47",
"&	c #DF525D",
"*	c #DE848D",
"=	c #E5D6DA",
"-	c #E1A4AB",
";	c #E03F49",
">	c #EF4B52",
",	c #F25056",
"'	c #DF404A",
")	c #E1A7AE",
"!	c #E53E48",
"~	c #E53D48",
"{	c #E1A8AF",
"]	c #E64950",
"^	c #DC424B",
"/	c #DB424A",
"(	c #E74950",
"_	c #E0404B",
":	c #E5D6DB",
"<	c #A21F2C",
"[	c #D63F48",
"}	c #D53E47",
"|	c #DD434B",
"1	c #EE4A52",
"2	c #DE868E",
"3	c #D84048",
"4	c #DE555E",
"5	c #E13D47",
"6	c #E0404A",
"7	c #DE555F",
"8	c #DF848D",
"9	c #EE4A51",
"0	c #DE8890",
"a	c #E6D8DC",
"b	c #E43C47",
"c	c #E1A9B0",
"d	c #DF3F4A",
"e	c #E5D7DB",
"f	c #DD535D",
"........................",
"++++++++++++++++++++++++",
"++++++++++++++++++++++++",
"++++++++++++++++++++++++",
"++++++++++++++++++++++++",
"++++++++@#$%%&*=++++++++",
"+++++++-;>,,,,>')+++++++",
"++++++-!,,,,,,,,~{++++++",
"+++++@;,]^,,,,/(,_:+++++",
"+++++#>,^<[,,}<|,12+++++",
"+++++$,,,[<[}<3,,,4+++++",
"+++++5,,,,[<<3,,,,;+++++",
"+++++%,,,,}<<[,,,,6+++++",
"+++++&,,,}<3[<[,,,7+++++",
"+++++8>,/<3,,[<|,90+++++",
"+++++=',(|,,,,|(,_a+++++",
"++++++)~,,,,,,,,bc++++++",
"+++++++{d1,,,,9_c+++++++",
"++++++++e2f;;70e++++++++",
"++++++++++++++++++++++++",
"++++++++++++++++++++++++",
"++++++++++++++++++++++++",
"++++++++++++++++++++++++",
"++++++++++++++++++++++++"};
