/* XPM */
static char * maximize_pressed_xpm[] = {
"24 24 53 1",
" 	c None",
".	c #EEEFF1",
"+	c #E7E8EB",
"@	c #D6E5DB",
"#	c #7FD487",
"$	c #40C949",
"%	c #21C42C",
"&	c #20C32B",
"*	c #3FC949",
"=	c #7DD585",
"-	c #A9DDAF",
";	c #23C42D",
">	c #14C21F",
",	c #22C42C",
"'	c #A5DCAB",
")	c #17C222",
"!	c #16C221",
"~	c #D7E6DC",
"{	c #11A817",
"]	c #0F9612",
"^	c #109813",
"/	c #13BA1D",
"(	c #D5E5DA",
"_	c #81D589",
":	c #14BE1E",
"<	c #0E870D",
"[	c #0C7408",
"}	c #109B13",
"|	c #7DD484",
"1	c #41C949",
"2	c #11A918",
"3	c #13BD1D",
"4	c #109913",
"5	c #3DC946",
"6	c #0E850D",
"7	c #1FC429",
"8	c #41C94B",
"9	c #80D588",
"0	c #7CD483",
"a	c #D8E6DC",
"b	c #25C42E",
"c	c #109A13",
"d	c #109812",
"e	c #11A717",
"f	c #22C52C",
"g	c #D6E5DA",
"h	c #A8DDAE",
"i	c #17C322",
"j	c #A4DCAA",
"k	c #A4DBAA",
"l	c #7ED486",
"m	c #1FC22A",
"n	c #3EC948",
"........................",
"++++++++++++++++++++++++",
"++++++++++++++++++++++++",
"++++++++++++++++++++++++",
"++++++++++++++++++++++++",
"++++++++@#$%&*=@++++++++",
"+++++++-;>>>>>>,'+++++++",
"++++++-)>>>>>>>>!'++++++",
"+++++~;>>>{]]]^/>&(+++++",
"+++++_>>>>:<[[[}>>|+++++",
"+++++1>>23>:<[[4>>5+++++",
"+++++;>>463>:<[4>>7+++++",
"+++++;>>4[63>:<4>>7+++++",
"+++++8>>4[[63>:2>>5+++++",
"+++++9>>}[[[63>>>>0+++++",
"+++++ab>/cddde>>>fg+++++",
"++++++hi>>>>>>>>!j++++++",
"+++++++h,>>>>>>,k+++++++",
"++++++++gl*&mn|g++++++++",
"++++++++++++++++++++++++",
"++++++++++++++++++++++++",
"++++++++++++++++++++++++",
"++++++++++++++++++++++++",
"++++++++++++++++++++++++"};
